<?xml version="1.0" encoding="UTF-8"?>
<svg id="Layer_2" data-name="Layer 2" xmlns="http://www.w3.org/2000/svg" viewBox="0 0 82.18 80.5">
  <defs>
    <style>
      .cls-1 {
        fill: #000;
        stroke-width: 0px;
      }
    </style>
  </defs>
  <g id="Layer_1-2" data-name="Layer 1">
    <g>
      <path class="cls-1" d="M1.22,58.84h25.48l-2.34,3.62c-.36.55-.21,1.29.33,1.66,5.05,3.49,8.02,9.5,8.19,9.87v5.29c0,.67.54,1.22,1.22,1.22h16.78c.67,0,1.22-.54,1.22-1.22v-5.29c.18-.37,3.14-6.38,8.19-9.87.54-.37.69-1.11.33-1.66l-2.34-3.62h22.68c.67,0,1.22-.54,1.22-1.22V19.34s-.01-.05-.01-.07c0-.11-.03-.21-.06-.32-.01-.04-.02-.08-.04-.11-.06-.13-.13-.25-.24-.36L63.7.36c-.1-.1-.23-.18-.36-.24-.04-.02-.07-.03-.11-.04-.1-.04-.21-.06-.32-.06-.02,0-.05-.01-.07-.01H1.22C.54,0,0,.54,0,1.22v56.4c0,.67.54,1.22,1.22,1.22ZM42.49,53.92c.98,0,1.78.8,1.78,1.78s-.8,1.78-1.78,1.78-1.78-.8-1.78-1.78.8-1.78,1.78-1.78ZM49.66,78.06h-14.35v-3.34h14.35v3.34ZM50.23,72.28h-15.49c-.91-1.72-3.55-6.23-7.72-9.47l2.93-4.53s0,0,0,0l11.31-17.49v10.9c-1.73.53-3,2.12-3,4.01,0,2.32,1.89,4.21,4.21,4.21s4.22-1.89,4.22-4.21c0-1.9-1.27-3.49-3-4.01v-10.9l14.25,22.02c-4.17,3.24-6.81,7.75-7.72,9.47ZM78.02,18.12h-13.97V4.16l13.97,13.97ZM2.43,2.43h59.18v16.9c0,.67.54,1.22,1.22,1.22h16.9v35.85h-23.03l-11.29-17.45c1.85.59,3.38,1.02,4.78,1.34.09.02.18.03.28.03.55,0,1.05-.38,1.19-.94.15-.66-.26-1.31-.91-1.46-1.4-.32-2.93-.76-4.84-1.37-.64-.2-1.33.15-1.53.79,0,0,0,0,0,0l-.86-1.34s-.05-.03-.06-.06c-.22-.3-.56-.5-.96-.5s-.74.2-.96.5c-.02.02-.05.03-.06.06l-13.19,20.4H2.43V2.43Z"/>
      <path class="cls-1" d="M16.73,36.15c-.65.52-1.29,1.09-1.92,1.72-.48.48-.48,1.25,0,1.72.24.24.55.36.86.36s.62-.12.86-.36c.56-.56,1.13-1.07,1.71-1.53.53-.42.61-1.18.19-1.71-.42-.53-1.18-.62-1.71-.19Z"/>
      <path class="cls-1" d="M56.82,41.13h0c1.93,0,3.7-.27,5.41-.8.64-.2,1-.88.8-1.52-.2-.64-.88-1-1.52-.8-1.48.46-3.02.68-4.7.69-.67,0-1.22.55-1.21,1.22,0,.67.55,1.21,1.22,1.21Z"/>
      <path class="cls-1" d="M34.24,35.46c1.39.33,2.92.77,4.84,1.39.12.04.25.06.37.06.51,0,.99-.33,1.16-.84.21-.64-.14-1.33-.78-1.53-1.97-.64-3.57-1.1-5.02-1.44-.64-.15-1.31.25-1.47.9-.16.65.25,1.31.9,1.47Z"/>
      <path class="cls-1" d="M29.34,33.43c0-.67-.6-1.22-1.28-1.22-1.89,0-3.62.24-5.3.74-.64.19-1.01.87-.82,1.51.16.53.64.87,1.17.87.12,0,.23-.02.35-.05,1.44-.43,2.95-.64,4.71-.64.67,0,1.16-.54,1.16-1.22Z"/>
      <path class="cls-1" d="M67.5,37.36c.27,0,.53-.09.76-.27.65-.52,1.3-1.1,1.92-1.72.47-.48.47-1.25,0-1.72-.48-.47-1.25-.48-1.72,0-.55.55-1.13,1.07-1.71,1.54-.53.42-.61,1.19-.19,1.71.24.3.59.46.95.46Z"/>
      <path class="cls-1" d="M14.85,41.6l-1.88,1.13-1.13-1.88c-.35-.58-1.09-.76-1.67-.41-.58.35-.76,1.1-.41,1.67l1.13,1.88-1.88,1.13c-.58.35-.76,1.1-.41,1.67.23.38.63.59,1.04.59.21,0,.43-.06.63-.17l1.88-1.13,1.13,1.88c.23.38.63.59,1.04.59.21,0,.43-.06.63-.17.58-.35.76-1.1.41-1.67l-1.13-1.88,1.88-1.13c.58-.35.76-1.1.41-1.67-.35-.58-1.09-.76-1.67-.41Z"/>
      <path class="cls-1" d="M20.27,16.83l1.88-1.13c.58-.35.76-1.1.41-1.67-.35-.58-1.09-.76-1.67-.41l-1.88,1.13-1.13-1.88c-.35-.58-1.09-.76-1.67-.41-.58.35-.76,1.1-.41,1.67l1.13,1.88-1.88,1.13c-.58.35-.76,1.1-.41,1.67.23.38.63.59,1.04.59.21,0,.43-.06.63-.17l1.88-1.13,1.13,1.88c.23.38.63.59,1.04.59.21,0,.43-.06.63-.17.58-.35.76-1.1.41-1.67l-1.13-1.88Z"/>
      <path class="cls-1" d="M68.98,32.4c.21,0,.43-.06.63-.17l1.88-1.13,1.13,1.88c.23.38.63.59,1.04.59.21,0,.43-.06.63-.17.58-.35.76-1.1.41-1.67l-1.13-1.88,1.88-1.13c.58-.35.76-1.1.41-1.67-.35-.58-1.09-.76-1.67-.41l-1.88,1.13-1.13-1.88c-.35-.58-1.09-.76-1.67-.41-.58.35-.76,1.1-.41,1.67l1.13,1.88-1.88,1.13c-.58.35-.76,1.1-.41,1.67.23.38.63.59,1.04.59Z"/>
    </g>
  </g>
</svg>