<?xml version="1.0" encoding="UTF-8"?>
<svg id="Layer_2" data-name="Layer 2" xmlns="http://www.w3.org/2000/svg" viewBox="0 0 80.55 66.29">
  <defs>
    <style>
      .cls-1, .cls-2, .cls-3 {
        stroke-width: 2px;
      }

      .cls-1, .cls-2, .cls-3, .cls-4 {
        stroke: #000;
        stroke-miterlimit: 10;
      }

      .cls-1, .cls-4 {
        fill: none;
      }

      .cls-2, .cls-3 {
        fill: #fff;
      }

      .cls-3 {
        fill-rule: evenodd;
      }

      .cls-4 {
        stroke-width: 1.7px;
      }
    </style>
  </defs>
  <g id="Layer_1-2" data-name="Layer 1">
    <g>
      <g>
        <path class="cls-2" d="M14.57,17.87c0-.94.76-1.7,1.7-1.7s1.7.76,1.7,1.7v37.79c0,.94-.76,1.7-1.7,1.7s-1.7-.76-1.7-1.7V17.87h0Z"/>
        <path class="cls-2" d="M26.99,17.87c0-.94.76-1.7,1.7-1.7s1.7.76,1.7,1.7v37.79c0,.94-.76,1.7-1.7,1.7s-1.7-.76-1.7-1.7V17.87h0Z"/>
        <path class="cls-2" d="M40.48,17.87c0-.94.76-1.7,1.7-1.7s1.7.76,1.7,1.7v37.79c0,.94-.76,1.7-1.7,1.7s-1.7-.76-1.7-1.7V17.87h0Z"/>
        <path class="cls-2" d="M52.9,17.87c0-.94.76-1.7,1.7-1.7s1.7.76,1.7,1.7v37.79c0,.94-.76,1.7-1.7,1.7s-1.7-.76-1.7-1.7V17.87h0Z"/>
        <polygon class="cls-3" points="13.02 26.6 19.69 26.6 19.69 35.96 13.02 35.96 13.02 26.6 13.02 26.6"/>
        <polygon class="cls-3" points="25.36 35.63 32.03 35.63 32.03 44.99 25.36 44.99 25.36 35.63 25.36 35.63"/>
        <polygon class="cls-3" points="38.85 25.16 45.52 25.16 45.52 34.52 38.85 34.52 38.85 25.16 38.85 25.16"/>
        <polygon class="cls-3" points="51.27 29.24 57.94 29.24 57.94 38.6 51.27 38.6 51.27 29.24 51.27 29.24"/>
        <rect class="cls-1" x="1" y="8.09" width="68.9" height="57.2" rx="1.3" ry="1.3"/>
      </g>
      <circle class="cls-2" cx="68.78" cy="11.77" r="10.77"/>
      <ellipse class="cls-4" cx="65.93" cy="16.52" rx="2.75" ry="2.17"/>
      <polyline class="cls-4" points="68.64 16.88 68.64 6.63 73.37 5.75 73.37 8.93 69.18 9.67"/>
    </g>
  </g>
</svg>