<?xml version="1.0" encoding="UTF-8"?>
<svg id="Layer_2" data-name="Layer 2" xmlns="http://www.w3.org/2000/svg" viewBox="0 0 95.8 88.41">
  <defs>
    <style>
      .cls-1, .cls-2, .cls-3, .cls-4, .cls-5 {
        stroke: #000;
      }

      .cls-1, .cls-4 {
        fill: #fff;
        stroke-width: 1.99px;
      }

      .cls-1, .cls-5 {
        stroke-linecap: round;
        stroke-linejoin: round;
      }

      .cls-2 {
        stroke-width: 1.95px;
      }

      .cls-2, .cls-3, .cls-4 {
        stroke-miterlimit: 10;
      }

      .cls-2, .cls-3, .cls-5 {
        fill: none;
      }

      .cls-3 {
        stroke-width: 1.84px;
      }

      .cls-5 {
        stroke-width: 1.84px;
      }
    </style>
  </defs>
  <g id="Layer_1-2" data-name="Layer 1">
    <g>
      <line class="cls-5" x1="29.18" y1="7.64" x2="94.88" y2="7.64"/>
      <line class="cls-5" x1=".92" y1="7.64" x2="22.09" y2="7.64"/>
      <line class="cls-5" x1="71.75" y1="79.65" x2="94.88" y2="79.65"/>
      <line class="cls-5" x1=".92" y1="79.65" x2="64.39" y2="79.65"/>
      <line class="cls-5" x1="17.23" y1="87.49" x2="17.23" y2=".92"/>
      <line class="cls-3" x1="78.04" y1="87.49" x2="78.04" y2=".92"/>
      <path class="cls-2" d="M17.24,27.35v32.93c0,.65.35,1.25.91,1.57l28.52,16.46c.56.32,1.26.32,1.82,0l28.52-16.46c.56-.32.91-.92.91-1.57V27.35c0-.65-.35-1.25-.91-1.57l-28.52-16.46c-.56-.32-1.26-.32-1.82,0l-28.52,16.46c-.56.32-.91.92-.91,1.57Z"/>
      <path class="cls-3" d="M26.47,35.08v17.47c0,2.13,1.14,4.11,2.99,5.17l15.13,8.74c1.85,1.07,4.12,1.07,5.97,0l15.13-8.74c1.85-1.07,2.99-3.04,2.99-5.17v-17.47c0-2.13-1.14-4.11-2.99-5.17l-15.13-8.74c-1.85-1.07-4.12-1.07-5.97,0l-15.13,8.74c-1.85,1.07-2.99,3.04-2.99,5.17Z"/>
      <g>
        <polyline class="cls-1" points="62.79 39.55 59.16 43.19 62.04 46.06 81.3 26.8 78.42 23.92 76.76 25.58"/>
        <polygon class="cls-1" points="76.76 25.58 78.42 23.92 75.57 21.08 56.31 40.34 59.16 43.19 59.16 43.19 62.79 39.55 76.76 25.58"/>
        <polygon class="cls-1" points="84.2 29.6 84.2 29.6 84.15 29.65 81.3 26.8 62.04 46.06 62.04 46.06 64.89 48.91 84.2 29.6 84.2 29.6"/>
        <polygon class="cls-1" points="56.77 51.63 64.88 48.91 56.31 40.34 53.25 48.11 56.77 51.63"/>
        <polygon class="cls-1" points="53.25 48.11 51.11 53.52 56.77 51.63 56.77 51.63 53.25 48.11 53.25 48.11"/>
        <polygon class="cls-4" points="85.26 24.45 78.73 17.92 78.7 17.95 77.64 19.01 76.67 19.98 75.63 21.03 75.63 21.03 75.57 21.08 78.42 23.92 81.3 26.8 84.15 29.65 84.2 29.6 84.2 29.6 85.24 28.55 86.21 27.59 87.27 26.52 87.31 26.49 85.26 24.45"/>
        <path class="cls-4" d="M91.13,16.95l-2.5-2.5-.36-.36c-1.28-1.28-3.18-1.56-4.65-.81-.34.17-.66.4-.94.69l-3.95,3.95,6.53,6.53,2.04,2.04,3.95-3.95c1.51-1.51,1.46-4.02-.12-5.6Z"/>
      </g>
    </g>
  </g>
</svg>